HIERARCHY
ROOT hip
{
  OFFSET 0 0 0
  CHANNELS 6 Xposition Yposition Zposition Zrotation Yrotation Xrotation
  JOINT abdomen
  {
    OFFSET 0 20.6881 -0.73152
    CHANNELS 3 Zrotation Xrotation Yrotation
    JOINT chest
    {
      OFFSET 0 11.7043 -0.48768
      CHANNELS 3 Zrotation Xrotation Yrotation
      JOINT neck
      {
        OFFSET 0 22.1894 -2.19456
        CHANNELS 3 Zrotation Xrotation Yrotation
        JOINT head
        {
          OFFSET -0.24384 7.07133 1.2192
          CHANNELS 3 Zrotation Xrotation Yrotation
          JOINT leftEye
          {
            OFFSET 4.14528 8.04674 8.04672
            CHANNELS 3 Zrotation Xrotation Yrotation
            End Site
            {
              OFFSET 1 0 0
            }
          }
          JOINT rightEye
          {
            OFFSET -3.6576 8.04674 8.04672
            CHANNELS 3 Zrotation Xrotation Yrotation
            End Site
            {
              OFFSET 1 0 0
            }
          }
        }
      }
      JOINT rCollar
      {
        OFFSET -2.68224 19.2634 -4.8768
        CHANNELS 3 Zrotation Xrotation Yrotation
        JOINT rShldr
        {
          OFFSET -8.77824 -1.95073 1.46304
          CHANNELS 3 Zrotation Xrotation Yrotation
          JOINT rForeArm
          {
            OFFSET -28.1742 -1.7115 0.48768
            CHANNELS 3 Zrotation Xrotation Yrotation
            JOINT rHand
            {
              OFFSET -22.5879 0.773209 7.07136
              CHANNELS 3 Zrotation Xrotation Yrotation
              JOINT rThumb1
              {
                OFFSET -1.2192 -0.487915 3.41376
                CHANNELS 3 Zrotation Xrotation Yrotation
                JOINT rThumb2
                {
                  OFFSET -3.37035 -0.52449 3.41376
                  CHANNELS 3 Zrotation Xrotation Yrotation
                  End Site
                  {
                    OFFSET -1.78271 -1.18214 1.43049
                  }
                }
              }
              JOINT rIndex1
              {
                OFFSET -7.75947 0.938293 5.60832
                CHANNELS 3 Zrotation Xrotation Yrotation
                JOINT rIndex2
                {
                  OFFSET -2.54057 -0.884171 1.56538
                  CHANNELS 3 Zrotation Xrotation Yrotation
                  End Site
                  {
                    OFFSET -1.62519 -0.234802 1.16502
                  }
                }
              }
              JOINT rMid1
              {
                OFFSET -8.24714 1.18213 3.41376
                CHANNELS 3 Zrotation Xrotation Yrotation
                JOINT rMid2
                {
                  OFFSET -3.10165 -0.590103 1.0647
                  CHANNELS 3 Zrotation Xrotation Yrotation
                  End Site
                  {
                    OFFSET -2.48547 -0.328903 0.83742
                  }
                }
              }
              JOINT rRing1
              {
                OFFSET -8.82822 0.546677 1.51678
                CHANNELS 3 Zrotation Xrotation Yrotation
                JOINT rRing2
                {
                  OFFSET -2.60934 -0.819778 -0.0198488
                  CHANNELS 3 Zrotation Xrotation Yrotation
                  End Site
                  {
                    OFFSET -2.33842 -0.294052 0.168128
                  }
                }
              }
              JOINT rPinky1
              {
                OFFSET -8.27202 -0.0477905 -0.4584
                CHANNELS 3 Zrotation Xrotation Yrotation
                JOINT rPinky2
                {
                  OFFSET -1.82734 -0.647385 -0.700984
                  CHANNELS 3 Zrotation Xrotation Yrotation
                  End Site
                  {
                    OFFSET -1.69225 -0.51767 -0.607171
                  }
                }
              }
            }
          }
        }
      }
      JOINT lCollar
      {
        OFFSET 2.68224 19.2634 -4.8768
        CHANNELS 3 Zrotation Xrotation Yrotation
        JOINT lShldr
        {
          OFFSET 8.77824 -1.95073 1.46304
          CHANNELS 3 Zrotation Xrotation Yrotation
          JOINT lForeArm
          {
            OFFSET 28.1742 -1.7115 0.48768
            CHANNELS 3 Zrotation Xrotation Yrotation
            JOINT lHand
            {
              OFFSET 22.5879 0.773209 7.07136
              CHANNELS 3 Zrotation Xrotation Yrotation
              JOINT lThumb1
              {
                OFFSET 1.2192 -0.487915 3.41376
                CHANNELS 3 Zrotation Xrotation Yrotation
                JOINT lThumb2
                {
                  OFFSET 3.37035 -0.52449 3.41376
                  CHANNELS 3 Zrotation Xrotation Yrotation
                  End Site
                  {
                    OFFSET 1.78271 -1.18214 1.43049
                  }
                }
              }
              JOINT lIndex1
              {
                OFFSET 7.75947 0.938293 5.60832
                CHANNELS 3 Zrotation Xrotation Yrotation
                JOINT lIndex2
                {
                  OFFSET 2.54057 -0.884171 1.56538
                  CHANNELS 3 Zrotation Xrotation Yrotation
                  End Site
                  {
                    OFFSET 1.62519 -0.234802 1.16502
                  }
                }
              }
              JOINT lMid1
              {
                OFFSET 8.24714 1.18213 3.41376
                CHANNELS 3 Zrotation Xrotation Yrotation
                JOINT lMid2
                {
                  OFFSET 3.10165 -0.590103 1.0647
                  CHANNELS 3 Zrotation Xrotation Yrotation
                  End Site
                  {
                    OFFSET 2.48547 -0.328903 0.83742
                  }
                }
              }
              JOINT lRing1
              {
                OFFSET 8.82822 0.546677 1.51678
                CHANNELS 3 Zrotation Xrotation Yrotation
                JOINT lRing2
                {
                  OFFSET 2.60934 -0.819778 -0.0198488
                  CHANNELS 3 Zrotation Xrotation Yrotation
                  End Site
                  {
                    OFFSET 2.33842 -0.294052 0.168128
                  }
                }
              }
              JOINT lPinky1
              {
                OFFSET 8.27202 -0.0477905 -0.4584
                CHANNELS 3 Zrotation Xrotation Yrotation
                JOINT lPinky2
                {
                  OFFSET 1.82734 -0.647385 -0.700984
                  CHANNELS 3 Zrotation Xrotation Yrotation
                  End Site
                  {
                    OFFSET 1.69225 -0.51767 -0.607171
                  }
                }
              }
            }
          }
        }
      }
    }
  }
  JOINT rButtock
  {
    OFFSET -8.77824 4.35084 1.2192
    CHANNELS 3 Zrotation Xrotation Yrotation
    JOINT rThigh
    {
      OFFSET 0 -1.70687 -2.19456
      CHANNELS 3 Zrotation Xrotation Yrotation
      JOINT rShin
      {
        OFFSET 0 -36.8199 0.73152
        CHANNELS 3 Zrotation Xrotation Yrotation
        JOINT rFoot
        {
          OFFSET 0.73152 -45.1104 -5.12064
          CHANNELS 3 Zrotation Xrotation Yrotation
          End Site
          {
            OFFSET -1.1221 -3.69964 12.103
          }
        }
      }
    }
  }
  JOINT lButtock
  {
    OFFSET 8.77824 4.35084 1.2192
    CHANNELS 3 Zrotation Xrotation Yrotation
    JOINT lThigh
    {
      OFFSET 0 -1.70687 -2.19456
      CHANNELS 3 Zrotation Xrotation Yrotation
      JOINT lShin
      {
        OFFSET 0 -36.8199 0.73152
        CHANNELS 3 Zrotation Xrotation Yrotation
        JOINT lFoot
        {
          OFFSET -0.73152 -45.1104 -5.12064
          CHANNELS 3 Zrotation Xrotation Yrotation
          End Site
          {
            OFFSET 1.1221 -3.69964 12.103
          }
        }
      }
    }
  }
}
MOTION
Frames:	4
Frame Time:	0.03333
0.0846399983856827 56.72069787979126 -2.3063899949193 -5.857700005797166 -25.087300189382468 2.6565999432423437 -1.8077999553669886 18.633200018090836 3.9285698506745397 -0.6884269860808971 -5.890209998699134 0.592287004231943 -1.6347899830300963 14.14899982796446 5.3491697970880905 3.6434299433940174 -29.223401496006435 11.682800372459507 -0.0 0.0 0.0 -0.0 0.0 0.0 -6.313129994763552e-14 -1.1003399871401738e-14 -1.6522900522743283e-13 106.38600198374311 51.451299338423716 -50.69459975575093 -27.308800433908896 -43.12760051392847 89.73630256100232 -11.607899664247501 -65.49630270608556 -17.960400771635193 1.4966900161913633e-09 -2.709479944606609e-09 -1.085320055460886e-10 2.575180029258474e-09 -4.541419805729317e-09 -1.0803299391022539e-10 1.49667997756565e-09 -2.7094700053732293e-09 -1.0853000527537095e-10 7.730910121524428 5.474879855648998 0.41731399283890674 1.49667997756565e-09 -2.70946006613985e-09 -1.0852400446321804e-10 2.90554006136521 0.9651829962377875 0.10290200252939893 1.4966999554247429e-09 -2.7094700053732293e-09 -1.0853000527537095e-10 10.278599710243157 0.7318009818271524 0.025912300303053633 1.49667997756565e-09 -2.7094700053732293e-09 -1.0851800365106513e-10 2.221669932038622 -0.7334870246959406 -0.20891999872313852 -6.327739770000386e-14 -1.0988299777233079e-14 -1.6548800524568691e-13 -40.12190063758349 -17.669999911146466 -70.21599757351022 12.396700282245702 -5.730019864547532 -22.381700042147628 2.020880086243407 36.88459929176713 -6.054190034066446 1.0674699874498423e-09 -1.7333700187675997e-08 2.3091799044449655e-09 1.912259998771047e-09 -2.9983400676515355e-08 3.946340012674169e-09 1.0674699874498423e-09 -1.7333700187675997e-08 2.3091799044449655e-09 -7.730910121524428 5.474879855648998 -0.41731399283890674 1.0674699874498423e-09 -1.7333700187675997e-08 2.3091799044449655e-09 -2.90554006136521 0.9651829962377875 -0.10290200252939893 1.0674699874498423e-09 -1.7333700187675997e-08 2.3091799044449655e-09 -10.278599710243157 0.7318009818271524 -0.025912300303053633 1.0674699874498423e-09 -1.7333700187675997e-08 2.3091600259782063e-09 -2.221669932038622 -0.7334870246959406 0.20891999872313852 -2.0321699793705798e-16 0.0 -3.882510030490358e-19 -3.418999959107742 -19.268300035422595 12.535599862980726 -2.1773799972524976 72.91440040890716 3.6561601353464517 -7.3975900598386355 -22.117100221248627 -20.225800349504585 2.0321699793705798e-16 0.0 3.882510030490358e-19 23.338399516549437 -50.00910148008094 -4.639510154116004 0.1629539995477163 21.522699593633682 0.9262810134897451 -3.98798011673578 14.43329962197707 6.858270212124789
0.17482999828644097 57.04789757728577 -4.718969948589802 -5.277699978273547 -22.95410063044596 2.898399952361608 -1.9297100808718421 18.990200345629063 3.308230085582591 -0.4679769743683292 -6.281750165983292 0.47311300981991433 -1.6431599529711238 13.895100352173928 4.91064006274836 3.48365004747944 -29.533000310704775 10.797799955096261 -0.0 0.0 0.0 -0.0 0.0 0.0 -1.1236399943451805e-14 -4.175179829150846e-15 -8.949930232132427e-14 105.94899965045653 51.747200208741596 -49.63870032139115 -27.396699845885085 -42.84809892780779 89.19890327710571 -11.366899854478186 -65.18479826860879 -17.695300639379486 1.3093000584674884e-10 -2.2692800447506732e-10 -3.324470121784094e-11 2.269390121760352e-10 -3.761579901558279e-10 -4.945700098866103e-11 1.309280055760312e-10 -2.2692301001029408e-10 -3.324799980091879e-11 7.730910121524428 5.474879855648998 0.41731399283890674 1.3092699922865153e-10 -2.2692199123887267e-10 -3.32428003394571e-11 2.90554006136521 0.9651829962377875 0.10290200252939893 1.3093500031152208e-10 -2.2692499785697e-10 -3.3241200744085074e-11 10.278599710243157 0.7318009818271524 0.025912300303053633 1.3092400503459593e-10 -2.2692499785697e-10 -3.323389851356152e-11 2.221669932038622 -0.7334870246959406 -0.20891999872313852 -1.1349099742349022e-14 -4.1496200780286695e-15 -8.975130168325511e-14 -39.06199871237008 -16.690999869104566 -70.18259794846887 12.781600224996138 -6.01228981171618 -23.13300036028152 1.7433799589929555 34.6863985300469 -5.5811797972492 -1.4371100271400135e-10 2.032090055140114e-10 1.0549499824270957e-10 -2.432909892359426e-10 3.253570029235705e-10 1.8291399790796823e-10 -1.4370799609590404e-10 2.0318900280683502e-10 1.0550400567295981e-10 -7.730910121524428 5.474879855648998 -0.41731399283890674 -1.437090024432837e-10 2.0318799645945536e-10 1.0550000513152453e-10 -2.90554006136521 0.9651829962377875 -0.10290200252939893 -1.43713002984719e-10 2.0319399727160827e-10 1.0549400431937162e-10 -10.278599710243157 0.7318009818271524 -0.025912300303053633 -1.437090024432837e-10 2.0321699417284025e-10 1.0548800350721869e-10 -2.221669932038622 -0.7334870246959406 0.20891999872313852 -2.0321699793705798e-16 0.0 -3.882510030490358e-19 -3.0593499450583734 -20.744199754677506 9.551100040045819 -2.1176600248010797 72.76339858673651 3.6817601112424825 -8.723450159822232 -20.60139928215276 -24.461999785962384 2.0321699793705798e-16 0.0 3.882510030490358e-19 21.030099520503192 -51.46040056549276 -3.5498100345445334 0.18067400487460203 20.13850028662807 1.1586999712274084 -3.1602100678714824 9.832800093305593 9.763780177968968
0.13092999870423228 57.253700494766235 -7.274029962718487 -4.68439986488862 -20.582500148719333 3.229699985600369 -2.0991299350262467 19.428899980924395 2.820520001011007 -0.06573059895198878 -6.666119915299405 0.4025120124121371 -1.637369980267363 13.597600363816623 4.472859941670039 3.240460094864078 -30.172401639666347 9.906570405209964 -0.0 0.0 0.0 -0.0 0.0 0.0 2.2408200026399014e-14 4.462649966699634e-14 -9.342759868194602e-14 105.5089988641243 52.06359847675868 -48.55309980942557 -27.498899966435985 -42.51169845080632 88.55149696643689 -11.35400018845697 -65.16800283343973 -17.68110067609503 6.380079880716957e-10 -1.3751800057483974e-09 -1.229790042883835e-10 1.102530036842285e-09 -2.334900056230623e-09 -1.749139959290416e-10 6.380069941483577e-10 -1.3751800057483974e-09 -1.2298799929459202e-10 7.730910121524428 5.474879855648998 0.41731399283890674 6.380079880716957e-10 -1.3751800057483974e-09 -1.229790042883835e-10 2.90554006136521 0.9651829962377875 0.10290200252939893 6.380130073845523e-10 -1.3751900443741107e-09 -1.2297799794100382e-10 10.278599710243157 0.7318009818271524 0.025912300303053633 6.380040123783439e-10 -1.3751800057483974e-09 -1.2296999685813326e-10 2.221669932038622 -0.7334870246959406 -0.20891999872313852 2.2283600173376916e-14 4.465199989130728e-14 -9.367959804387685e-14 -38.321899904475 -16.067099654464336 -70.49740136731475 13.09640022874744 -6.247489937106508 -23.75390041432882 1.5404699797906862 32.884399966606196 -5.21401017181047 4.693120138170404e-10 -2.430620042077273e-09 5.4667199928410784e-11 8.100330091545052e-10 -4.124579887300725e-09 8.302300034953842e-11 4.693149955870542e-10 -2.4306299813106526e-09 5.468059925741062e-11 -7.730910121524428 5.474879855648998 -0.41731399283890674 4.693120138170404e-10 -2.4306299813106526e-09 5.467220060520488e-11 -2.90554006136521 0.9651829962377875 -0.10290200252939893 4.693089823508596e-10 -2.4306299813106526e-09 5.466810067143581e-11 -10.278599710243157 0.7318009818271524 -0.025912300303053633 4.693140016637163e-10 -2.430609904059226e-09 5.466480208835796e-11 -2.221669932038622 -0.7334870246959406 0.20891999872313852 -2.0321699793705798e-16 0.0 -3.882510030490358e-19 -2.3543299215234295 -22.65780019406164 7.083820133991535 -2.073620032249895 72.69610073284439 3.7205901635608285 -10.03870041470386 -19.669800752950746 -28.243199340670614 2.0321699793705798e-16 0.0 3.882510030490358e-19 19.794099950561222 -54.39720090858523 1.9178300340276628 0.22340200079554895 22.652899533332153 1.1775299489954874 -1.9507001059649376 6.693350171972954 13.09640022874744
-0.08761001226957887 57.336801290512085 -9.981540031731129 -4.2725001843491235 -18.683400200943137 3.7800000027352456 -2.3169899176612048 19.95020050894728 2.4658001028819188 0.5193250025271627 -7.043320100421122 0.38058601127891184 -1.6184400042609668 13.25659975440915 4.0360701980213705 2.895579938008039 -31.143398407548286 9.001589976977137 -0.0 0.0 0.0 -0.0 0.0 0.0 3.7802400624180976e-14 1.3540199919027225e-13 -1.7701399743855067e-13 105.06399837931963 52.4001014065977 -47.43559889894144 -27.609900785732446 -42.11449904490799 87.80180174275795 -11.56839982650367 -65.44590274020004 -17.91689929681138 3.0179199995968936e-09 -6.154240122904618e-09 -3.777349986199979e-10 5.201949848158292e-09 -1.0417700123079454e-08 -4.844039942614192e-10 3.0179199995968936e-09 -6.154240122904618e-09 -3.7775100078573904e-10 7.730910121524428 5.474879855648998 0.41731399283890674 3.0179199995968936e-09 -6.154240122904618e-09 -3.777319920019006e-10 2.90554006136521 0.9651829962377875 0.10290200252939893 3.0179299388302734e-09 -6.154250062137998e-09 -3.7774101185619255e-10 10.278599710243157 0.7318009818271524 0.025912300303053633 3.0179199995968936e-09 -6.154240122904618e-09 -3.777260036137894e-10 2.221669932038622 -0.7334870246959406 -0.20891999872313852 3.762049882188208e-14 1.35416995396885e-13 -1.7727299745680476e-13 -37.89649864749369 -15.782799860451727 -71.12629786533284 13.344300237125761 -6.437440059245501 -24.243799147642573 1.3919099502483239 31.48030090345375 -4.936680158959034 2.906539956422055e-09 -2.5235199891156036e-08 2.156699938537585e-09 5.072230130336132e-09 -4.333320009100644e-08 3.646659801630638e-09 2.906539956422055e-09 -2.5235199891156036e-08 2.156710076555632e-09 -7.730910121524428 5.474879855648998 -0.41731399283890674 2.906539956422055e-09 -2.5235199891156036e-08 2.156699938537585e-09 -2.90554006136521 0.9651829962377875 -0.10290200252939893 2.9065300171886757e-09 -2.5235199891156036e-08 2.156699938537585e-09 -10.278599710243157 0.7318009818271524 -0.025912300303053633 2.906539956422055e-09 -2.5235199891156036e-08 2.156699938537585e-09 -2.221669932038622 -0.7334870246959406 0.20891999872313852 -2.0321699793705798e-16 0.0 -3.882510030490358e-19 -1.3160900479844222 -25.02590020383864 5.129460113848529 -2.0456800762329004 72.71250001704158 3.7730297946872473 -11.48189974953369 -19.303799943633734 -31.61020085618364 2.0321699793705798e-16 0.0 3.882510030490358e-19 21.55499955821867 -58.09849749528807 13.33679983564344 0.3177549943822588 29.06630031490697 0.981827953801697 -0.5452050161791643 4.997400113793624 16.866699655313976
